# xmcd
#
# Track frame offsets:
#	150
#	12682
#	32507
#	48975
#	67187
#	84890
#	99460
#	113672
#	132990
#	144177
#	158007
#	173142
#	190657
#	217450
#	236695
#	249797
#	271885
#
# Disc length: 3926 seconds
#
# Revision: 1
# Processed by: cddbd v1.5.2PL0 Copyright (c) Steve Scherf et al.
# Submitted via: audiograbber 1.83.01
#
DISCID=e40f5411
DTITLE=Vários - Cem Anos de Samba [CD 2)
DYEAR=1994
DGENRE=Samba
TTITLE0=Vai Haver Barulho no Chatô - Para me Livrar do Mal - Palhoça
TTITLE1=Feitiço da Vila - Minha Embaixada - João Ninguém - Foi Ela
TTITLE2=Adeus Batucada - Conversa de Botequim - Tarzan (O Filho do Alfaiate)
TTITLE3=Na Virada da Montanha - No Tabuleiro da Baiana - Favela
TTITLE4=Aquarela do Brasil - O que é que a Maria Tem? - Feitio de Oração - Arra
TTITLE4=sta a Sandália
TTITLE5=Sabiá Laranjeira - Se Acaso Você Chegasse - Na Mão Direita - Porteiro S
TTITLE5=uba e Veja
TTITLE6=Mensagem - Brasa - Às Três Horas da Manhã
TTITLE7=Fracasso - 5 Letras que Choram (Adeus) - Caminhemos
TTITLE8=Nervos de Aço - Vida da Minha Vida - Enlouqueci
TTITLE9=Rio - Madrugada - A Lapa
TTITLE10=Velhas Cartas de Amor - Nega Maluca - Cadeira Vazia
TTITLE11=Antonico - Vingança - Risque
TTITLE12=Amor Proibido - Laranja Madura - Samba do Crioulo Doido
TTITLE13=Zazueira - Casa de Bamba - Lapinha
TTITLE14=Aquele Abraço - Cadê Tereza
TTITLE15=O Pequeno Burguês - Madalena - Filosofia do Samba
TTITLE16=É Baiana - Me Deixa em Paz - Partido Alto - Quero Sim
EXTD=
EXTT0=
EXTT1=
EXTT2=
EXTT3=
EXTT4=
EXTT5=
EXTT6=
EXTT7=
EXTT8=
EXTT9=
EXTT10=
EXTT11=
EXTT12=
EXTT13=
EXTT14=
EXTT15=
EXTT16=
PLAYORDER=
